<svg width="25" height="25" viewBox="0 0 25 25" fill="none" xmlns="http://www.w3.org/2000/svg">
<g clip-path="url(#clip0_5545_2)">
<path d="M23.7197 8.55923L16.8927 7.56529L13.8419 1.39038C13.5677 0.83861 13.0327 0.559692 12.4977 0.559692C11.966 0.559692 11.4347 0.834879 11.1595 1.39038L8.10777 7.56482L1.28034 8.55783C0.0559947 8.73507 -0.434677 10.2411 0.452916 11.104L5.39182 15.9081L4.22297 22.6936C4.05693 23.6628 4.83071 24.4403 5.69732 24.4403C5.92726 24.4403 6.16374 24.3857 6.39088 24.2654L12.4986 21.062L18.6059 24.2663C18.8326 24.3853 19.0686 24.4394 19.2976 24.4394C20.1651 24.4394 20.9403 23.6646 20.7743 22.695L19.6068 15.909L24.5467 11.1059C25.4347 10.243 24.9441 8.73646 23.7197 8.55923ZM18.0415 14.3055L17.1964 15.1273L17.396 16.2878L18.3065 21.5793L13.5429 19.0797L12.4991 18.5322L12.5005 3.73786L14.8806 8.55549L15.4021 9.611L16.5686 9.78077L21.8965 10.5564L18.0415 14.3055Z" fill="#FCA120"/>
</g>
<defs>
<clipPath id="clip0_5545_2">
<rect width="25" height="25" fill="white"/>
</clipPath>
</defs>
</svg>
