<svg width="80" height="123" viewBox="0 0 80 123" fill="none" xmlns="http://www.w3.org/2000/svg">
<g clip-path="url(#clip0_5544_11)">
<path d="M50.2 1.24995C56.91 3.09995 62.92 6.68995 67.71 11.48C74.9 18.67 79.36 28.59 79.36 39.51V83.2C79.36 94.12 74.9 104.04 67.71 111.23C60.52 118.42 50.6 122.88 39.68 122.88C28.76 122.88 18.84 118.42 11.65 111.23C4.46 104.04 0 94.11 0 83.2V39.51C0 28.59 4.46 18.67 11.65 11.48C17.24 5.89995 24.48 1.95995 32.55 0.479952C37.42 -0.420047 45.7 0.00995255 50.2 1.24995ZM39.23 30.82C43.38 30.82 46.78 34.22 46.78 38.37V46.15C46.78 50.3 43.38 53.7 39.23 53.7C35.08 53.7 31.68 50.3 31.68 46.15V38.37C31.68 34.22 35.07 30.82 39.23 30.82ZM61.08 18.11C55.59 12.62 48.01 9.19995 39.68 9.19995C31.35 9.19995 23.78 12.61 18.28 18.11C12.79 23.6 9.37 31.18 9.37 39.51V83.2C9.37 91.53 12.78 99.1 18.28 104.6C23.77 110.09 31.35 113.51 39.68 113.51C48.01 113.51 55.58 110.1 61.08 104.6C66.57 99.11 69.99 91.53 69.99 83.2V39.51C69.99 31.18 66.58 23.61 61.08 18.11Z" fill="white"/>
</g>
<defs>
<clipPath id="clip0_5544_11">
<rect width="79.37" height="122.88" fill="white"/>
</clipPath>
</defs>
</svg>
