<svg width="103" height="123" viewBox="0 0 103 123" fill="none" xmlns="http://www.w3.org/2000/svg">
<g clip-path="url(#clip0_5703_2)">
<path fill-rule="evenodd" clip-rule="evenodd" d="M102.55 122.88H0V0H77.66L102.55 26.43V122.88ZM87.01 69.83C85.53 68.37 82.26 67.61 77.27 67.54C73.9 67.51 69.84 67.81 65.57 68.4C63.66 67.3 61.69 66.09 60.14 64.65C55.98 60.76 52.5 55.37 50.34 49.43C50.48 48.87 50.6 48.39 50.71 47.89C50.71 47.89 53.06 34.57 52.44 30.07C52.36 29.46 52.3 29.27 52.14 28.8L51.94 28.27C51.3 26.8 50.05 25.24 48.09 25.33L46.91 25.3C44.72 25.3 42.94 26.42 42.48 28.09C41.06 33.33 42.53 41.17 45.18 51.33L44.5 52.98C42.6 57.62 40.21 62.3 38.11 66.42L37.83 66.95C35.61 71.29 33.6 74.96 31.78 78.08L29.9 79.08C29.76 79.15 26.54 80.86 25.78 81.32C19.37 85.15 15.12 89.49 14.41 92.94C14.19 94.04 14.36 95.45 15.49 96.1L17.32 97C18.11 97.4 18.94 97.6 19.79 97.6C24.35 97.6 29.66 91.91 36.97 79.16C45.41 76.42 55.01 74.13 63.42 72.87C69.84 76.48 77.72 78.99 82.7 78.99C83.59 78.99 84.35 78.91 84.97 78.74C85.92 78.48 86.73 77.94 87.22 77.2C88.18 75.74 88.38 73.74 88.12 71.69C88.04 71.08 87.56 70.33 87.03 69.81L87.01 69.83ZM18.79 94.13C19.62 91.85 22.92 87.35 27.8 83.35C28.1 83.1 28.86 82.4 29.55 81.74C24.46 89.87 21.04 93.11 18.79 94.13ZM47.67 27.64C49.14 27.64 49.98 31.34 50.05 34.81C50.12 38.28 49.31 40.72 48.3 42.52C47.47 39.85 47.06 35.65 47.06 32.9C47.06 32.89 47 27.64 47.67 27.64ZM39.05 75.02C40.08 73.19 41.13 71.26 42.22 69.21C44.87 64.19 46.54 60.28 47.79 57.06C50.27 61.57 53.36 65.41 56.99 68.48C57.44 68.86 57.92 69.25 58.43 69.63C51.05 71.09 44.67 72.86 39.05 75.02ZM85.6 74.61C85.15 74.89 83.86 75.05 83.04 75.05C80.37 75.05 77.06 73.83 72.42 71.83C74.2 71.7 75.83 71.63 77.3 71.63C79.98 71.63 80.78 71.62 83.39 72.29C86.01 72.96 86.05 74.32 85.6 74.61ZM96.12 115.98V30.45H73.44V5.91H6.51V115.98H96.12Z" fill="#797979"/>
</g>
<defs>
<clipPath id="clip0_5703_2">
<rect width="102.55" height="122.88" fill="white"/>
</clipPath>
</defs>
</svg>
