<svg width="117" height="188" viewBox="0 0 117 188" fill="none" xmlns="http://www.w3.org/2000/svg">
<g clip-path="url(#clip0_5541_9)">
<path d="M18.8261 62.1702H98.5982L59.7395 15.0316L18.8261 62.1702ZM5.88663 114.006H111.11C114.364 114.006 117 116.652 117 119.918C117 121.452 116.419 122.847 115.464 123.9L64.3866 185.861C62.3172 188.374 58.6025 188.723 56.1016 186.646L55.4142 185.974L1.44795 123.797C-0.687304 121.338 -0.431366 117.602 2.02198 115.463C3.09256 114.525 4.46537 114.007 5.88663 114.006ZM98.5982 125.83H18.8261L59.7395 172.969L98.5982 125.83ZM111.11 73.9943H5.88663C4.51554 73.9943 3.13713 73.5135 2.02198 72.541C-0.431366 70.3979 -0.687304 66.6657 1.44795 64.2032L55.4105 2.02587L56.1016 1.3543C58.6025 -0.722804 62.3172 -0.370504 64.3866 2.13964L115.464 64.1005C116.419 65.1537 117 66.5519 117 68.0822C117 71.3483 114.364 73.9943 111.11 73.9943Z" fill="#118888"/>
</g>
<defs>
<clipPath id="clip0_5541_9">
<rect width="117" height="188" fill="white"/>
</clipPath>
</defs>
</svg>
