<svg width="123" height="98" viewBox="0 0 123 98" fill="none" xmlns="http://www.w3.org/2000/svg">
<g clip-path="url(#clip0_5703_5)">
<path fill-rule="evenodd" clip-rule="evenodd" d="M61.4399 28.68C65.4114 28.68 69.2937 29.8577 72.5958 32.0641C75.8979 34.2705 78.4716 37.4066 79.9914 41.0757C81.5113 44.7449 81.9089 48.7823 81.1341 52.6774C80.3593 56.5726 78.4469 60.1505 75.6386 62.9587C72.8304 65.767 69.2525 67.6794 65.3574 68.4542C61.4622 69.229 57.4248 68.8313 53.7557 67.3115C50.0865 65.7917 46.9505 63.218 44.744 59.9159C42.5376 56.6137 41.3599 52.7315 41.3599 48.76C41.3599 43.4345 43.4755 38.327 47.2412 34.5613C51.007 30.7956 56.1144 28.68 61.4399 28.68ZM22.2999 91.37C23.116 91.3726 23.8979 91.698 24.4749 92.275C25.052 92.8521 25.3773 93.6339 25.3799 94.45C25.3799 94.854 25.3002 95.254 25.1453 95.6272C24.9904 96.0003 24.7634 96.3392 24.4772 96.6244C24.1911 96.9096 23.8515 97.1355 23.4779 97.2892C23.1042 97.4429 22.7039 97.5213 22.2999 97.52H3.86995C3.05573 97.52 2.27487 97.1966 1.69913 96.6208C1.12339 96.0451 0.799947 95.2642 0.799947 94.45V76.3C0.803042 75.6931 0.985356 75.1007 1.324 74.5971C1.66264 74.0935 2.14252 73.7011 2.70338 73.4693C3.26424 73.2375 3.88109 73.1765 4.47649 73.294C5.07188 73.4116 5.61927 73.7024 6.04995 74.13L6.11995 74.21C6.66841 74.7694 6.98309 75.5168 6.99995 76.3V91.37H22.2999ZM22.2999 6.82225e-06C23.1166 0.00214973 23.8996 0.325421 24.4799 0.900007L24.5499 0.980007C24.9602 1.41745 25.2333 1.96547 25.3356 2.55638C25.4379 3.14729 25.3648 3.75523 25.1255 4.30511C24.8862 4.85499 24.4911 5.32275 23.989 5.65061C23.4868 5.97847 22.8996 6.15208 22.2999 6.15001H6.99995V21.22C6.95515 22.0052 6.61166 22.7436 6.0399 23.2836C5.46815 23.8237 4.71144 24.1246 3.92495 24.1246C3.13845 24.1246 2.38175 23.8237 1.80999 23.2836C1.23823 22.7436 0.894744 22.0052 0.849947 21.22V3.08001C0.839708 2.67989 0.909638 2.28177 1.05562 1.90909C1.2016 1.53642 1.42067 1.19672 1.69995 0.910007C1.98165 0.619907 2.3191 0.389752 2.692 0.233371C3.06491 0.0769904 3.46558 -0.00238759 3.86995 6.82225e-06H22.2999ZM100.58 6.15001C100.176 6.15132 99.7757 6.07289 99.402 5.91919C99.0284 5.7655 98.6888 5.53957 98.4027 5.25437C98.1165 4.96916 97.8895 4.63028 97.7346 4.25716C97.5797 3.88404 97.4999 3.48401 97.4999 3.08001C97.5026 2.26395 97.8279 1.48207 98.405 0.905031C98.982 0.327989 99.7639 0.00264353 100.58 6.82225e-06H119C119.813 0.00369734 120.593 0.326933 121.17 0.900007C121.456 1.18611 121.683 1.526 121.838 1.90013C121.992 2.27426 122.071 2.67525 122.07 3.08001V21.22C122.07 21.6232 121.991 22.0224 121.836 22.3948C121.682 22.7673 121.456 23.1057 121.171 23.3908C120.886 23.6759 120.547 23.902 120.175 24.0563C119.802 24.2106 119.403 24.29 119 24.29C118.186 24.2874 117.405 23.9634 116.828 23.3885C116.252 22.8136 115.925 22.0343 115.92 21.22V6.15001H100.58ZM100.58 97.52C100.176 97.5213 99.7757 97.4429 99.402 97.2892C99.0284 97.1355 98.6888 96.9096 98.4027 96.6244C98.1165 96.3392 97.8895 96.0003 97.7346 95.6272C97.5797 95.254 97.4999 94.854 97.4999 94.45C97.5026 93.6339 97.8279 92.8521 98.405 92.275C98.982 91.698 99.7639 91.3726 100.58 91.37H115.93V76.3C115.93 75.4858 116.253 74.7049 116.829 74.1292C117.405 73.5535 118.186 73.23 119 73.23C119.814 73.23 120.595 73.5535 121.171 74.1292C121.746 74.7049 122.07 75.4858 122.07 76.3V94.45C122.07 95.2642 121.746 96.0451 121.171 96.6208C120.595 97.1966 119.814 97.52 119 97.52H100.58ZM0.999947 46.24C3.82065 42.8197 6.87818 39.6018 10.1499 36.61C24.4899 23.61 41.5099 16.61 59.0599 16.24C76.6099 15.87 94.5299 22.14 110.76 35.53C114.759 38.8366 118.515 42.4259 122 46.27C122.554 46.8792 122.88 47.6615 122.922 48.4839C122.963 49.3062 122.719 50.1176 122.23 50.78C118.269 56.4174 113.533 61.4672 108.16 65.78C95.4061 75.867 79.6105 81.3343 63.3499 81.29C46.9406 81.3078 30.9329 76.2154 17.5499 66.72C11.2392 62.2519 5.59025 56.916 0.769947 50.87C0.247073 50.1988 -0.017332 49.3621 0.0248827 48.5123C0.0670974 47.6625 0.413123 46.8561 0.999947 46.24ZM14.9399 41.86C12.5825 44.008 10.3458 46.2848 8.23995 48.68C12.1934 53.2857 16.6932 57.3926 21.6399 60.91C33.8214 69.5577 48.3911 74.2023 63.3299 74.2C77.9814 74.2255 92.2101 69.2911 103.7 60.2C107.804 56.9038 111.497 53.1267 114.7 48.95C112.029 46.1383 109.198 43.4839 106.22 41C91.3299 28.74 74.9999 23 59.1499 23.33C43.2999 23.66 27.9299 30 14.8899 41.86H14.9399ZM61.4899 41.42C62.9441 41.42 64.3655 41.8513 65.5744 42.6594C66.7833 43.4675 67.7254 44.616 68.2814 45.9596C68.8374 47.3032 68.9824 48.7816 68.698 50.2076C68.4136 51.6336 67.7125 52.9433 66.6836 53.9708C65.6547 54.9983 64.3441 55.6975 62.9177 55.98C61.4913 56.2625 60.0131 56.1155 58.6703 55.5576C57.3274 54.9998 56.1802 54.0562 55.3738 52.8462C54.5674 51.6362 54.138 50.2141 54.1399 48.76C54.1399 47.7953 54.3301 46.84 54.6996 45.9488C55.0691 45.0576 55.6107 44.248 56.2933 43.5663C56.976 42.8846 57.7863 42.3441 58.678 41.9759C59.5697 41.6076 60.5252 41.4187 61.4899 41.42Z" fill="#858585"/>
</g>
<defs>
<clipPath id="clip0_5703_5">
<rect width="122.88" height="97.52" fill="white"/>
</clipPath>
</defs>
</svg>
