<svg width="123" height="112" viewBox="0 0 123 112" fill="none" xmlns="http://www.w3.org/2000/svg">
<g clip-path="url(#clip0_5536_7)">
<path d="M4.06 8.21994C2.97329 8.19637 1.93921 7.74739 1.18001 6.9695C0.420819 6.1916 -0.00287547 5.1469 -7.25115e-07 4.05994C0.0180057 2.98879 0.451535 1.96654 1.20906 1.20901C1.96659 0.451478 2.98884 0.0179486 4.06 -5.78209e-05H10.06C13.5485 -0.0565322 16.9859 0.8426 20 2.59994C25.44 6.04994 26.41 10.9799 27.8 16.5399H118.8C119.876 16.5426 120.907 16.9712 121.668 17.732C122.429 18.4928 122.857 19.524 122.86 20.5999C122.843 21.0238 122.773 21.4439 122.65 21.8499L112.06 64.6099C111.859 65.5141 111.35 66.3204 110.621 66.8913C109.891 67.4621 108.986 67.7621 108.06 67.7399H41.51C42.97 73.1499 44.43 76.0599 46.4 77.4099C48.8 78.9999 53 79.0799 59.93 78.9999H107.06C108.137 78.9999 109.169 79.4277 109.931 80.1891C110.692 80.9505 111.12 81.9832 111.12 83.0599C111.12 84.1367 110.692 85.1694 109.931 85.9308C109.169 86.6922 108.137 87.1199 107.06 87.1199H60C51.37 87.2199 46.06 87.0099 41.8 84.2099C37.54 81.4099 35.14 76.2999 32.85 67.2099L18.94 14.4599C18.94 14.3599 18.94 14.3599 18.83 14.2499C18.6474 13.3015 18.2774 12.3991 17.7416 11.5955C17.2059 10.7919 16.5152 10.1033 15.71 9.56994C13.9706 8.59417 11.9922 8.12642 10 8.21994H4.06ZM84.38 33.2199C84.5147 32.569 84.8698 31.9844 85.3853 31.5647C85.9008 31.1449 86.5452 30.9158 87.21 30.9158C87.8748 30.9158 88.5192 31.1449 89.0347 31.5647C89.5502 31.9844 89.9053 32.569 90.04 33.2199V48.9299C89.9053 49.5809 89.5502 50.1655 89.0347 50.5852C88.5192 51.0049 87.8748 51.2341 87.21 51.2341C86.5452 51.2341 85.9008 51.0049 85.3853 50.5852C84.8698 50.1655 84.5147 49.5809 84.38 48.9299V33.2399V33.2199ZM67.43 33.2199C67.5599 32.5636 67.9135 31.9727 68.4305 31.5479C68.9476 31.1232 69.5959 30.8911 70.265 30.8911C70.9341 30.8911 71.5824 31.1232 72.0994 31.5479C72.6165 31.9727 72.9701 32.5636 73.1 33.2199V48.9299C72.9701 49.5863 72.6165 50.1772 72.0994 50.6019C71.5824 51.0266 70.9341 51.2588 70.265 51.2588C69.5959 51.2588 68.9476 51.0266 68.4305 50.6019C67.9135 50.1772 67.5599 49.5863 67.43 48.9299V33.2399V33.2199ZM50.49 33.2199C50.6248 32.569 50.9798 31.9844 51.4953 31.5647C52.0108 31.1449 52.6552 30.9158 53.32 30.9158C53.9848 30.9158 54.6292 31.1449 55.1447 31.5647C55.6602 31.9844 56.0152 32.569 56.15 33.2199V48.9299C56.0152 49.5809 55.6602 50.1655 55.1447 50.5852C54.6292 51.0049 53.9848 51.2341 53.32 51.2341C52.6552 51.2341 52.0108 51.0049 51.4953 50.5852C50.9798 50.1655 50.6248 49.5809 50.49 48.9299V33.2399V33.2199ZM92.21 24.6399H30.07L39.33 59.4999H105L113.64 24.6399H92.21ZM94.89 91.8499C96.8678 91.8499 98.8012 92.4364 100.446 93.5352C102.09 94.6341 103.372 96.1958 104.129 98.0231C104.886 99.8504 105.084 101.861 104.698 103.801C104.312 105.741 103.36 107.522 101.961 108.921C100.563 110.32 98.7807 111.272 96.8409 111.658C94.9011 112.044 92.8904 111.846 91.0632 111.089C89.2359 110.332 87.6741 109.05 86.5753 107.406C85.4765 105.761 84.89 103.828 84.89 101.85C84.89 99.1978 85.9436 96.6542 87.8189 94.7789C89.6943 92.9035 92.2378 91.8499 94.89 91.8499ZM51.09 91.8499C53.0678 91.8499 55.0012 92.4364 56.6457 93.5352C58.2902 94.6341 59.5719 96.1958 60.3288 98.0231C61.0857 99.8504 61.2837 101.861 60.8979 103.801C60.512 105.741 59.5596 107.522 58.1611 108.921C56.7625 110.32 54.9807 111.272 53.0409 111.658C51.1011 112.044 49.0904 111.846 47.2632 111.089C45.4359 110.332 43.8741 109.05 42.7753 107.406C41.6765 105.761 41.09 103.828 41.09 101.85C41.09 99.1978 42.1436 96.6542 44.0189 94.7789C45.8943 92.9035 48.4378 91.8499 51.09 91.8499Z" fill="#FCA120"/>
</g>
<defs>
<clipPath id="clip0_5536_7">
<rect width="122.88" height="111.85" fill="white"/>
</clipPath>
</defs>
</svg>
