<svg width="111" height="123" viewBox="0 0 111 123" fill="none" xmlns="http://www.w3.org/2000/svg">
<g clip-path="url(#clip0_5689_5)">
<path fill-rule="evenodd" clip-rule="evenodd" d="M78.06 80.32C78.7052 80.304 79.3377 80.5008 79.86 80.88C80.56 81.33 81.35 82.21 82.33 82.76C83.71 83.55 86.26 82.47 87.56 84.41C88.1273 85.266 88.4235 86.2731 88.41 87.3C88.4493 88.433 88.8724 89.519 89.61 90.38C91.21 92.5 91.54 93.91 90.72 95.38C90.15 96.38 88.97 96.94 88.72 97.57C88.14 98.92 88.78 99.93 87.99 101.51C87.737 102.028 87.3799 102.487 86.9412 102.861C86.5024 103.234 85.9914 103.513 85.44 103.68C84.44 103.99 83.51 103.54 82.74 103.87C81.39 104.44 80.4 105.76 79.32 106.1C78.919 106.227 78.5007 106.291 78.08 106.29C77.6594 106.29 77.2412 106.226 76.84 106.1C75.76 105.77 74.77 104.44 73.42 103.87C72.65 103.55 71.69 103.99 70.72 103.68C70.1683 103.516 69.6571 103.238 69.2196 102.865C68.782 102.491 68.4279 102.029 68.18 101.51C67.38 99.93 68.02 98.92 67.44 97.57C67.17 96.93 65.99 96.37 65.44 95.38C64.61 93.91 64.94 92.5 66.55 90.38C67.2835 89.5166 67.7061 88.432 67.75 87.3C67.734 86.2728 68.0304 85.2649 68.6 84.41C69.9 82.47 72.46 83.56 73.83 82.76C74.83 82.21 75.6 81.32 76.3 80.88C76.8242 80.5047 77.4554 80.3084 78.1 80.32H78.06ZM15.63 122.87C11.69 122.93 8.23 122.76 5.5 121.48C2.05 119.86 0 116.8 0 111V105.71H15.1V13.39C14.88 8.07996 16.17 4.77996 18.54 2.71996C20.91 0.659961 24.11 0.0799609 27.89 -3.90597e-05C28.07 -0.0900391 102.71 -3.90597e-05 110.46 -3.90597e-05V110.15C110.46 114.61 109.36 117.77 107.1 119.88C104.84 121.99 101.64 122.88 97.32 122.88L15.63 122.87ZM34.05 23.51C33.4851 23.51 32.9433 23.2856 32.5439 22.8861C32.1444 22.4866 31.92 21.9449 31.92 21.38C31.92 20.815 32.1444 20.2733 32.5439 19.8738C32.9433 19.4744 33.4851 19.25 34.05 19.25H72.9C73.4649 19.25 74.0067 19.4744 74.4061 19.8738C74.8056 20.2733 75.03 20.815 75.03 21.38C75.03 21.9449 74.8056 22.4866 74.4061 22.8861C74.0067 23.2856 73.4649 23.51 72.9 23.51H34.05ZM34.05 38.02C33.4851 38.02 32.9433 37.7956 32.5439 37.3961C32.1444 36.9966 31.92 36.4549 31.92 35.89C31.92 35.3251 32.1444 34.7833 32.5439 34.3838C32.9433 33.9844 33.4851 33.76 34.05 33.76H91.15C91.7149 33.76 92.2567 33.9844 92.6561 34.3838C93.0556 34.7833 93.28 35.3251 93.28 35.89C93.28 36.4549 93.0556 36.9966 92.6561 37.3961C92.2567 37.7956 91.7149 38.02 91.15 38.02H34.05ZM34.05 81.52C33.4877 81.52 32.9485 81.2966 32.5509 80.899C32.1534 80.5014 31.93 79.9622 31.93 79.4C31.93 78.8377 32.1534 78.2985 32.5509 77.9009C32.9485 77.5033 33.4877 77.28 34.05 77.28H53.76C54.3223 77.28 54.8615 77.5033 55.2591 77.9009C55.6566 78.2985 55.88 78.8377 55.88 79.4C55.88 79.9622 55.6566 80.5014 55.2591 80.899C54.8615 81.2966 54.3223 81.52 53.76 81.52H34.05ZM34.05 67.03C33.4851 67.03 32.9433 66.8055 32.5439 66.4061C32.1444 66.0066 31.92 65.4649 31.92 64.9C31.92 64.3351 32.1444 63.7933 32.5439 63.3938C32.9433 62.9944 33.4851 62.77 34.05 62.77H91.15C91.7149 62.77 92.2567 62.9944 92.6561 63.3938C93.0556 63.7933 93.28 64.3351 93.28 64.9C93.28 65.4649 93.0556 66.0066 92.6561 66.4061C92.2567 66.8055 91.7149 67.03 91.15 67.03H34.05ZM34.05 52.49C33.493 52.49 32.9589 52.2687 32.5651 51.8749C32.1712 51.4811 31.95 50.9469 31.95 50.39C31.95 49.833 32.1712 49.2989 32.5651 48.905C32.9589 48.5112 33.493 48.29 34.05 48.29H91.48C92.037 48.29 92.5711 48.5112 92.9649 48.905C93.3588 49.2989 93.58 49.833 93.58 50.39C93.58 50.9469 93.3588 51.4811 92.9649 51.8749C92.5711 52.2687 92.037 52.49 91.48 52.49H34.05ZM33 96.81C37.94 90.32 42.15 93.26 48 97.36L48.87 97.97C50.48 99.09 52.35 97.44 54.12 95.87C54.9389 95.1077 55.8148 94.409 56.74 93.78L58.56 96.65C57.7908 97.1819 57.0622 97.7702 56.38 98.41C53.62 100.84 50.73 103.41 46.94 100.76L46.05 100.14C41.74 97.14 38.65 94.97 35.68 98.87L33 96.81ZM15.1 110H4.26V111C4.26 114.83 5.4 116.74 7.26 117.63C9.12 118.52 11.87 118.63 15.07 118.63V110H15.1ZM106.21 110.18V4.29996H27.91C25.08 4.29996 22.76 4.68996 21.32 5.92996C19.88 7.16996 19.18 9.39996 19.32 13.29V118.61H97.32C100.54 118.61 102.83 118.05 104.2 116.76C105.57 115.47 106.2 113.36 106.2 110.15L106.21 110.18ZM78.06 85.52C79.5992 85.518 81.1043 85.9726 82.3851 86.8263C83.6658 87.6799 84.6645 88.8943 85.2549 90.3158C85.8453 91.7372 86.0008 93.3018 85.7017 94.8116C85.4027 96.3215 84.6625 97.7087 83.5748 98.7977C82.4872 99.8868 81.1009 100.629 79.5915 100.93C78.082 101.231 76.5172 101.077 75.095 100.489C73.6728 99.9001 72.4572 98.903 71.6019 97.6233C70.7465 96.3437 70.29 94.8391 70.29 93.3C70.29 91.2383 71.1083 89.2609 72.5652 87.8022C74.022 86.3435 75.9983 85.5226 78.06 85.52Z" fill="#797979"/>
</g>
<defs>
<clipPath id="clip0_5689_5">
<rect width="110.46" height="122.88" fill="white"/>
</clipPath>
</defs>
</svg>
